<?xml version="1.0" encoding="utf-8"?>
<!-- Generator: Adobe Illustrator 24.3.0, SVG Export Plug-In . SVG Version: 6.00 Build 0)  -->
<svg version="1.1" id="Layer_1" xmlns="http://www.w3.org/2000/svg" xmlns:xlink="http://www.w3.org/1999/xlink" x="0px" y="0px"
	 viewBox="0 0 1000 1000" style="enable-background:new 0 0 1000 1000;" xml:space="preserve">
<style type="text/css">
	.st0{fill:url(#SVGID_1_);}
	.st1{fill:url(#SVGID_2_);}
	.st2{fill:url(#SVGID_3_);}
	.st3{fill:#60909D;}
	.st4{fill:url(#SVGID_4_);}
	.st5{fill:none;}
	.st6{fill:url(#SVGID_6_);}
</style>
<linearGradient id="SVGID_1_" gradientUnits="userSpaceOnUse" x1="502.2349" y1="418.9478" x2="464.0213" y2="539.2917">
	<stop  offset="0" style="stop-color:#82CDCD"/>
	<stop  offset="0.3996" style="stop-color:#40696A"/>
	<stop  offset="1" style="stop-color:#000000"/>
</linearGradient>
<path class="st0" d="M533.5,353.4c0,0-112.1,1.7-95.3,127.8c0,0,92.6,10.8,119.7-47.3C557.8,433.9,576.8,388.8,533.5,353.4z"/>
<linearGradient id="SVGID_2_" gradientUnits="userSpaceOnUse" x1="533.8789" y1="417.943" x2="472.1865" y2="567.0692">
	<stop  offset="4.395721e-02" style="stop-color:#82CDCD"/>
	<stop  offset="0.3936" style="stop-color:#40696A"/>
	<stop  offset="1" style="stop-color:#000000"/>
</linearGradient>
<path class="st1" d="M438.9,485.7c0,0,79.1,4.3,117.9-33.5s16.5-89.5,1.5-100.1c0,0,15.5-5.6,36.3,28.6c0,0,18.8,38.8-11.7,67.2
	c0,0-25.8,28-73.8,37.9c0,0-30.1,5.9-68.6,3.5C440.5,489.3,439.5,489,438.9,485.7z"/>
<linearGradient id="SVGID_3_" gradientUnits="userSpaceOnUse" x1="573.2482" y1="418.0297" x2="491.8676" y2="574.9751">
	<stop  offset="6.735716e-02" style="stop-color:#82CDCD"/>
	<stop  offset="0.1358" style="stop-color:#7AC0C0"/>
	<stop  offset="0.2505" style="stop-color:#6AA6A6"/>
	<stop  offset="0.3964" style="stop-color:#538283"/>
	<stop  offset="0.5015" style="stop-color:#40696A"/>
	<stop  offset="1" style="stop-color:#000000"/>
</linearGradient>
<path class="st2" d="M608.6,361.6c0,0,44.9,48.3-10.5,97.4c0,0-39.5,42.3-157.2,32.5c0,0,13.2,36.8,40.6,51.7s66.6,23.3,105.8,0
	c0,0,28.4-18.9,36.2-40.6c0,0-70,43.9-175.4-5.4c0,0,37.4,13.2,73.5,17.2c36.1,4.1,78.9-3.7,102.3-36.3
	C648.5,443.6,646.2,394.3,608.6,361.6z"/>
<polygon class="st3" points="580.2,349.7 580.5,341 575.6,336.4 576,335.4 577,335.1 582.2,339.1 590.5,336.4 591.5,336.9 
	585.9,341.3 590.8,346 594.4,346 595.2,346.9 591.9,347.8 591.6,351 590.6,350.1 589.8,347.1 584.1,343.6 581.3,350.7 "/>
<linearGradient id="SVGID_4_" gradientUnits="userSpaceOnUse" x1="578.759" y1="352.1682" x2="573.9113" y2="382.0166">
	<stop  offset="0" style="stop-color:#40696A"/>
	<stop  offset="0.2353" style="stop-color:#528282"/>
	<stop  offset="0.7095" style="stop-color:#82CDCD"/>
</linearGradient>
<path class="st4" d="M574.6,378.5l19.9,2.3c0,0-18.5-32.1-36.3-28.6C558.3,352.1,567.3,357.5,574.6,378.5z"/>
<path id="SVGID_x5F_5_x5F_" class="st5" d="M668.7,449c0-74.5-60.4-134.9-134.9-134.9S398.8,374.5,398.8,449s60.4,134.9,134.9,134.9
	S668.7,523.5,668.7,449z"/>
<text><textPath  xlink:href="#SVGID_x5F_5_x5F_" startOffset="-47.583%">
</textPath>
</text>
<linearGradient id="SVGID_6_" gradientUnits="userSpaceOnUse" x1="608.5767" y1="382.2943" x2="634.1345" y2="382.2943">
	<stop  offset="0" style="stop-color:#40696A"/>
	<stop  offset="0.2353" style="stop-color:#528282"/>
	<stop  offset="0.7095" style="stop-color:#82CDCD"/>
</linearGradient>
<path class="st6" d="M625,396.4l9.1,6.6c0,0-1.6-18.5-25.6-41.5C608.6,361.6,624.7,380.7,625,396.4z"/>
</svg>
